<svg id="link_out" xmlns="http://www.w3.org/2000/svg" xmlns:xlink="http://www.w3.org/1999/xlink" width="10" height="10" viewBox="0 0 10 10">
  <defs>
    <clipPath id="clip-path">
      <rect id="長方形_1320" data-name="長方形 1320" width="10" height="10" fill="#121f2c"/>
    </clipPath>
  </defs>
  <g id="グループ_1556" data-name="グループ 1556" clip-path="url(#clip-path)">
    <path id="パス_1042" data-name="パス 1042" d="M6.249,0a.625.625,0,0,0,0,1.25H7.865L3.934,5.184a.625.625,0,0,0,.885.884L8.75,2.135V3.75a.625.625,0,0,0,1.25,0V.625A.625.625,0,0,0,9.375,0ZM1.563.625A1.562,1.562,0,0,0,0,2.187v6.25A1.563,1.563,0,0,0,1.563,10h6.25A1.562,1.562,0,0,0,9.375,8.437V6.25a.625.625,0,0,0-1.25,0V8.437a.314.314,0,0,1-.312.313H1.563a.313.313,0,0,1-.313-.313V2.187a.313.313,0,0,1,.313-.312H3.75a.625.625,0,0,0,0-1.25Z" fill="#121f2c"/>
  </g>
</svg>
